<svg viewBox="0 0 193 193" xmlns="http://www.w3.org/2000/svg">
  <!-- Blue rounded-square background / border (also forms the bottom-right notch) -->
  <path d="m160.5 1h-127.78a31.81 31.81 0 0 0 -31.72 31.72v127.78a31.81 31.81 0 0 0 31.72 31.72h87.51l-23.62-57.37-17.13 36.22h-46.76a10.71 10.71 0 0 1 -10.57-10.57v-127.78a10.71 10.71 0 0 1 10.57-10.57h127.78a10.71 10.71 0 0 1 10.57 10.57v127.78a10.71 10.71 0 0 1 -10.57 10.57h-27.73l8.71 21.15h19a31.81 31.81 0 0 0 31.72-31.72v-127.78a31.81 31.81 0 0 0 -31.7-31.72z" fill="#4695eb"/>
  <!-- Geometric diamond / cube mark -->
  <path d="m126.05 34.6-29.44 16.99 29.44 17z" fill="#4695eb"/>
  <path d="m67.17 34.6v33.99l29.44-17z" fill="#ff004a"/>
  <path d="m126.05 68.59-29.44-17-29.44 17 29.44 17z" fill="#fff"/>
  <path d="m36.13 88.36 29.44 17v-33.99z" fill="#4695eb"/>
  <path d="m65.57 139.35 29.44-16.99-29.44-17z" fill="#ff004a"/>
  <path d="m65.57 71.37v33.99l29.44 17v-34z" fill="#fff"/>
  <path d="m127.65 139.35v-33.99l-29.44 17z" fill="#4695eb"/>
  <path d="m157.09 88.36-29.44-16.99v33.99z" fill="#ff004a"/>
  <path d="m98.21 122.36 29.44-17v-33.99l-29.44 16.99z" fill="#fff"/>
</svg>
